# xmcd
#
# Track frame offsets: 
#        150
#        11615
#        26055
#        38649
#        51019
#        85497
#        98070
#        111039
#        125622
#        138033
#        150256
#        166450
#        177827
#        201263
#        215742
#        230260
#        244200
#        256459
#        279594
#        304068
#
# Disc length: 4175 seconds
#
# Revision: 0
# Processed by: cddbd v1.5.1PL0 Copyright (c) Steve Scherf et al.
# Submitted via: ExactAudioCopy v0.90b4
#
DISCID=0e104d14
DTITLE=Various Artist - Soul - Let It Be Me
DYEAR=2002
DGENRE=Soul
TTITLE0=Bobby Womack - Lookin' For A Love
TTITLE1=Ike and Tina Turner - Baby, Baby Get It On
TTITLE2=Birdlegs and Pauline - Spring
TTITLE3=Jerry Butler and Betty Everett - Let It Be Me
TTITLE4=Ann Peebles - I Can't Stand The Rain (Live)
TTITLE5=Joe Simon - Nine Pound Steel
TTITLE6=Percy Sledge - My Special Prayer
TTITLE7=Sly and The Family Stone - Remember Who You Are
TTITLE8=Lee Dorsey - Working In The Coal Mine
TTITLE9=Fred Hughes - You Can't Take It With You
TTITLE10=Al Jarreau - Use Me
TTITLE11=Betty Lavette - He Made A Woman Out Of Me
TTITLE12=Curtis Mayfield - So In Love
TTITLE13=The Meters - Look - Ka Py Py
TTITLE14=The Natural Four - It's The Music
TTITLE15=Joe Tex - Hold What You've Got
TTITLE16=Dinah Washington - Unforgettable
TTITLE17=Nina Simone - Youg Gifted And Black (Live)
TTITLE18=Marvin Gaye - Let's Get It On (Live)
TTITLE19=Irma Thomas - It's Raining
EXTD=
EXTT0=
EXTT1=
EXTT2=
EXTT3=
EXTT4=
EXTT5=
EXTT6=
EXTT7=
EXTT8=
EXTT9=
EXTT10=
EXTT11=
EXTT12=
EXTT13=
EXTT14=
EXTT15=
EXTT16=
EXTT17=
EXTT18=
EXTT19=
PLAYORDER=
